<svg width="51" height="50" viewBox="0 0 51 50" fill="none" xmlns="http://www.w3.org/2000/svg">
<path d="M25.5 45.8333C19.7979 41.0764 15.5394 36.6583 12.7245 32.5792C9.90958 28.5 8.50142 24.7236 8.5 21.25C8.5 16.0417 10.2092 11.8924 13.6276 8.80207C17.046 5.7118 21.0035 4.16666 25.5 4.16666C29.9979 4.16666 33.9561 5.7118 37.3745 8.80207C40.7929 11.8924 42.5014 16.0417 42.5 21.25C42.5 24.7222 41.0918 28.4986 38.2755 32.5792C35.4592 36.6597 31.2007 41.0778 25.5 45.8333ZM19.125 27.0833H23.375V21.3542H27.625V27.0833H31.875V17.1875L25.5 13.0208L19.125 17.1875V27.0833Z" fill="#F24E1E"/>
</svg>
